<svg width="20" height="20" viewBox="0 0 20 20" fill="none" xmlns="http://www.w3.org/2000/svg">
<g id="vuesax/outline/verify">
<g id="verify">
<path id="Vector" d="M8.99212 12.6417C8.82546 12.6417 8.66712 12.575 8.55046 12.4584L6.53379 10.4417C6.29212 10.2 6.29212 9.80002 6.53379 9.55836C6.77546 9.31669 7.17546 9.31669 7.41712 9.55836L8.99212 11.1334L12.5755 7.55002C12.8171 7.30836 13.2171 7.30836 13.4588 7.55002C13.7005 7.79169 13.7005 8.19169 13.4588 8.43336L9.43379 12.4584C9.31712 12.575 9.15879 12.6417 8.99212 12.6417Z" fill="#0C68F4"/>
<path id="Vector_2" d="M10.0001 18.9583C9.47507 18.9583 8.95006 18.7833 8.54173 18.4333L7.22506 17.3C7.09173 17.1833 6.7584 17.0666 6.5834 17.0666H5.15006C3.91673 17.0666 2.91673 16.0666 2.91673 14.8333V13.4083C2.91673 13.2333 2.80007 12.9083 2.6834 12.775L1.5584 11.45C0.875065 10.6416 0.875065 9.36663 1.5584 8.55829L2.6834 7.23329C2.80007 7.09996 2.91673 6.77496 2.91673 6.59996V5.16663C2.91673 3.93329 3.91673 2.93329 5.15006 2.93329H6.59173C6.76673 2.93329 7.10007 2.80829 7.2334 2.69996L8.55007 1.56663C9.36673 0.866626 10.6417 0.866626 11.4584 1.56663L12.7751 2.69996C12.9084 2.81663 13.2417 2.93329 13.4167 2.93329H14.8334C16.0667 2.93329 17.0667 3.93329 17.0667 5.16663V6.58329C17.0667 6.75829 17.1917 7.09163 17.3084 7.22496L18.4417 8.54163C19.1417 9.35829 19.1417 10.6333 18.4417 11.45L17.3084 12.7666C17.1917 12.9 17.0667 13.2333 17.0667 13.4083V14.825C17.0667 16.0583 16.0667 17.0583 14.8334 17.0583H13.4167C13.2417 17.0583 12.9084 17.1833 12.7751 17.2916L11.4584 18.425C11.0501 18.7833 10.5251 18.9583 10.0001 18.9583ZM5.15006 4.18329C4.6084 4.18329 4.16673 4.62496 4.16673 5.16663V6.59163C4.16673 7.06663 3.94173 7.67496 3.6334 8.03329L2.5084 9.35829C2.21673 9.69996 2.21673 10.2916 2.5084 10.6333L3.6334 11.9583C3.94173 12.325 4.16673 12.925 4.16673 13.4V14.825C4.16673 15.3666 4.6084 15.8083 5.15006 15.8083H6.59173C7.07506 15.8083 7.6834 16.0333 8.05006 16.35L9.36673 17.4833C9.7084 17.775 10.3084 17.775 10.6501 17.4833L11.9667 16.35C12.3334 16.0416 12.9417 15.8083 13.4251 15.8083H14.8417C15.3834 15.8083 15.8251 15.3666 15.8251 14.825V13.4083C15.8251 12.925 16.0501 12.3166 16.3667 11.95L17.5001 10.6333C17.7917 10.2916 17.7917 9.69163 17.5001 9.34996L16.3667 8.03329C16.0501 7.66663 15.8251 7.05829 15.8251 6.57496V5.16663C15.8251 4.62496 15.3834 4.18329 14.8417 4.18329H13.4251C12.9417 4.18329 12.3334 3.95829 11.9667 3.64163L10.6501 2.50829C10.3084 2.21663 9.7084 2.21663 9.36673 2.50829L8.05006 3.64996C7.6834 3.95829 7.06673 4.18329 6.59173 4.18329H5.15006Z" fill="#0C68F4"/>
</g>
</g>
</svg>
