<svg width="32" height="24" viewBox="0 0 32 24" fill="none" xmlns="http://www.w3.org/2000/svg">
<g id="american express" style="mix-blend-mode:luminosity">
<g clip-path="url(#clip0_4696_3901)">
<path id="Vector" d="M0 0H32V24H0V0Z" fill="white"/>
<path id="Vector_2" d="M28.4444 0H3.55556C1.59188 0 0 1.79086 0 4V20C0 22.2091 1.59188 24 3.55556 24H28.4444C30.4081 24 32 22.2091 32 20V4C32 1.79086 30.4081 0 28.4444 0Z" fill="white"/>
<path id="Vector_3" d="M28.4443 0.499756H3.55545C1.83723 0.499756 0.444336 2.06676 0.444336 3.99976V19.9998C0.444336 21.9328 1.83723 23.4998 3.55545 23.4998H28.4443C30.1626 23.4998 31.5554 21.9328 31.5554 19.9998V3.99976C31.5554 2.06676 30.1626 0.499756 28.4443 0.499756Z" stroke="#333333" stroke-opacity="0.07" stroke-width="0.970471"/>
<path id="Vector_4" d="M28.9391 16.2261H27.2555V17H28.8773C29.5628 17 30 16.508 30 15.8048C30 15.1016 29.6255 14.75 29.0018 14.75H28.2528C28.0664 14.75 27.9418 14.6096 27.9418 14.3984C27.9418 14.1873 28.0664 14.0468 28.2536 14.0468H29.6882L30 13.2729H28.3155C27.63 13.2729 27.1936 13.765 27.1936 14.3984C27.1936 15.1016 27.5682 15.4532 28.1909 15.4532H28.94C29.1264 15.4532 29.2509 15.5936 29.2509 15.8048C29.3137 16.0857 29.1891 16.2261 28.9391 16.2261ZM25.8837 16.2261H24.2V17H25.8218C26.5073 17 26.9437 16.508 26.9437 15.8048C26.9437 15.1016 26.5691 14.75 25.9464 14.75H25.1973C25.0109 14.75 24.8864 14.6096 24.8864 14.3984C24.8864 14.1873 25.0109 14.0468 25.1982 14.0468H26.6318L26.9437 13.2729H25.26C24.5745 13.2729 24.1382 13.765 24.1382 14.3984C24.1382 15.1016 24.5127 15.4532 25.1355 15.4532H25.8845C26.0709 15.4532 26.1955 15.5936 26.1955 15.8048C26.2582 16.0857 26.0709 16.2261 25.8837 16.2261ZM23.7009 13.9771V13.2032H21.0818V16.9293H23.7009V16.1564H21.8309V15.3825H23.64V14.6096H21.8309V13.9064H23.7009V13.9771ZM19.4609 13.9771C19.7727 13.9771 19.8973 14.1873 19.8973 14.3984C19.8973 14.6096 19.7727 14.8207 19.4609 14.8207H18.5255V13.9064L19.4609 13.9771ZM18.5255 15.5936H18.9L19.8973 16.9293H20.8327L19.71 15.5229C20.2718 15.3825 20.5836 14.9612 20.5836 14.3984C20.5836 13.6952 20.1464 13.2032 19.46 13.2032H17.7146V16.9293H18.4636L18.5255 15.5936ZM16.53 14.4681C16.53 14.75 16.4054 14.9612 16.0936 14.9612H15.0955V13.9761H16.0309C16.3427 13.9761 16.53 14.1873 16.53 14.4681ZM14.3473 13.2032V16.9293H15.0963V15.6634H16.0936C16.7791 15.6634 17.2782 15.1723 17.2782 14.3984C17.2782 13.6952 16.8418 13.1325 16.1555 13.1325L14.3473 13.2032ZM13.2246 16.9293H14.16L12.8509 15.0309L14.16 13.2032H13.2254L12.4154 14.3984L11.6045 13.2032H10.6691L11.979 15.0309L10.6691 16.8596H11.6045L12.4145 15.6643L13.2246 16.9293ZM10.4191 13.9761V13.2032H7.79911V16.9293H10.4182V16.1564H8.54817V15.3825H10.3564V14.6096H8.54817V13.9064H10.4191V13.9761ZM25.5718 9.4761L26.8818 11.7261H27.8173V8H27.0682V10.4602L26.8818 10.1086L25.6973 8H24.6991V11.7261H25.4482V9.19522L25.5718 9.4761ZM22.3291 9.40637L22.5791 8.63248L22.8282 9.40637L23.14 10.25H22.0173L22.3291 9.40637ZM23.6391 11.7261H24.4491L23.0155 8H22.0173L20.5836 11.7261H21.3937L21.7055 10.9532H23.3273L23.6391 11.7261ZM20.1464 11.7261L20.4582 10.9532H20.2718C19.71 10.9532 19.3982 10.5309 19.3982 9.89841V9.8277C19.3982 9.19522 19.71 8.77292 20.2718 8.77292H21.0818V8H20.2091C19.2118 8 18.65 8.77292 18.65 9.8277V9.89841C18.65 11.0229 19.2118 11.7261 20.1464 11.7261ZM17.3409 11.7261H18.0891V8.06973H17.34L17.3409 11.7261ZM15.7191 8.77292C16.0309 8.77292 16.1555 8.98407 16.1555 9.19522C16.1555 9.40637 16.0309 9.61752 15.72 9.61752H14.7837V8.7022L15.7191 8.77292ZM14.7845 10.3914H15.1591L16.1563 11.7271H17.0918L15.9691 10.3197C16.53 10.1793 16.8418 9.75797 16.8418 9.19522C16.8418 8.49203 16.4054 8 15.7191 8H13.9745V11.7261H14.7227L14.7845 10.3914ZM13.4127 8.7739V8.00098H10.7936V11.7271H13.4127V10.9542H11.5418V10.1803H13.3509V9.40736H11.5418V8.7022H13.4127V8.77193V8.7739ZM7.73814 11.7271H8.42449L9.35907 8.70417V11.7271H10.1081V8H8.86086L8.1118 10.5309L7.36361 8H6.11547V11.7261H6.86453V8.70319L7.73727 11.7261L7.73814 11.7271ZM3.68364 9.40637L3.93362 8.63248L4.18272 9.40637L4.49454 10.25H3.37182L3.68364 9.40637ZM4.99362 11.7261H5.80365L4.36999 8H3.43454L2 11.7261H2.81003L3.12272 10.9532H4.74365L4.99362 11.7261Z" fill="#2F6DC9"/>
</g>
</g>
<defs>
<clipPath id="clip0_4696_3901">
<rect width="32" height="24" rx="4" fill="white"/>
</clipPath>
</defs>
</svg>
