<svg width="20" height="21" viewBox="0 0 20 21" fill="none" xmlns="http://www.w3.org/2000/svg">
<g id="vuesax/outline/call-calling">
<g id="call-calling">
<path id="Vector" d="M14.542 19.4582C13.6003 19.4582 12.6087 19.2332 11.5837 18.7998C10.5837 18.3748 9.57533 17.7915 8.59199 17.0832C7.61699 16.3665 6.67532 15.5665 5.78366 14.6915C4.90033 13.7998 4.10033 12.8582 3.39199 11.8915C2.67533 10.8915 2.10033 9.8915 1.69199 8.92484C1.25866 7.8915 1.04199 6.8915 1.04199 5.94984C1.04199 5.29984 1.15866 4.68317 1.38366 4.10817C1.61699 3.5165 1.99199 2.9665 2.50033 2.4915C3.14199 1.85817 3.87533 1.5415 4.65866 1.5415C4.98366 1.5415 5.31699 1.6165 5.60033 1.74984C5.92532 1.89984 6.20033 2.12484 6.40032 2.42484L8.33366 5.14984C8.50866 5.3915 8.64199 5.62484 8.73366 5.85817C8.84199 6.10817 8.90032 6.35817 8.90032 6.59984C8.90032 6.9165 8.80866 7.22484 8.63366 7.5165C8.50866 7.7415 8.31699 7.98317 8.07532 8.22484L7.50866 8.8165C7.51699 8.8415 7.52532 8.85817 7.53366 8.87484C7.63366 9.04984 7.83366 9.34984 8.21699 9.79984C8.62532 10.2665 9.00866 10.6915 9.39199 11.0832C9.88366 11.5665 10.292 11.9498 10.6753 12.2665C11.1503 12.6665 11.4587 12.8665 11.642 12.9582L11.6253 12.9998L12.2337 12.3998C12.492 12.1415 12.742 11.9498 12.9837 11.8248C13.442 11.5415 14.0253 11.4915 14.6087 11.7332C14.8253 11.8248 15.0587 11.9498 15.3087 12.1248L18.0753 14.0915C18.3837 14.2998 18.6087 14.5665 18.742 14.8832C18.867 15.1998 18.9253 15.4915 18.9253 15.7832C18.9253 16.1832 18.8337 16.5832 18.6587 16.9582C18.4837 17.3332 18.267 17.6582 17.992 17.9582C17.517 18.4832 17.0003 18.8582 16.4003 19.0998C15.8253 19.3332 15.2003 19.4582 14.542 19.4582ZM4.65866 2.7915C4.20033 2.7915 3.77533 2.9915 3.36699 3.3915C2.98366 3.74984 2.71699 4.1415 2.55033 4.5665C2.37533 4.99984 2.29199 5.45817 2.29199 5.94984C2.29199 6.72484 2.47533 7.5665 2.84199 8.43317C3.21699 9.3165 3.74199 10.2332 4.40866 11.1498C5.07533 12.0665 5.83366 12.9582 6.66699 13.7998C7.50032 14.6248 8.40032 15.3915 9.32532 16.0665C10.2253 16.7248 11.1503 17.2582 12.067 17.6415C13.492 18.2498 14.8253 18.3915 15.9253 17.9332C16.3503 17.7582 16.7253 17.4915 17.067 17.1082C17.2587 16.8998 17.4087 16.6748 17.5337 16.4082C17.6337 16.1998 17.6837 15.9832 17.6837 15.7665C17.6837 15.6332 17.6587 15.4998 17.592 15.3498C17.567 15.2998 17.517 15.2082 17.3587 15.0998L14.592 13.1332C14.4253 13.0165 14.2753 12.9332 14.1337 12.8748C13.9503 12.7998 13.8753 12.7248 13.592 12.8998C13.4253 12.9832 13.2753 13.1082 13.1087 13.2748L12.4753 13.8998C12.1503 14.2165 11.6503 14.2915 11.267 14.1498L11.042 14.0498C10.7003 13.8665 10.3003 13.5832 9.85866 13.2082C9.45866 12.8665 9.02532 12.4665 8.50032 11.9498C8.09199 11.5332 7.68366 11.0915 7.25866 10.5998C6.86699 10.1415 6.58366 9.74984 6.40866 9.42484L6.30866 9.17484C6.25866 8.98317 6.24199 8.87484 6.24199 8.75817C6.24199 8.45817 6.35033 8.1915 6.55866 7.98317L7.18366 7.33317C7.35032 7.1665 7.47532 7.00817 7.55866 6.8665C7.62532 6.75817 7.65033 6.6665 7.65033 6.58317C7.65033 6.5165 7.62533 6.4165 7.58366 6.3165C7.52533 6.18317 7.43366 6.03317 7.31699 5.87484L5.38366 3.1415C5.30032 3.02484 5.20033 2.9415 5.07533 2.88317C4.94199 2.82484 4.80033 2.7915 4.65866 2.7915ZM11.6253 13.0082L11.492 13.5748L11.717 12.9915C11.6753 12.9832 11.642 12.9915 11.6253 13.0082Z" fill="#CBCBCB"/>
<path id="Vector_2" d="M15.4167 8.62492C15.075 8.62492 14.7917 8.34159 14.7917 7.99992C14.7917 7.69992 14.4917 7.07492 13.9917 6.54159C13.5 6.01659 12.9583 5.70825 12.5 5.70825C12.1583 5.70825 11.875 5.42492 11.875 5.08325C11.875 4.74159 12.1583 4.45825 12.5 4.45825C13.3083 4.45825 14.1583 4.89159 14.9 5.68325C15.5917 6.42492 16.0417 7.33325 16.0417 7.99992C16.0417 8.34159 15.7583 8.62492 15.4167 8.62492Z" fill="#CBCBCB"/>
<path id="Vector_3" d="M18.3333 8.62484C17.9917 8.62484 17.7083 8.3415 17.7083 7.99984C17.7083 5.12484 15.375 2.7915 12.5 2.7915C12.1583 2.7915 11.875 2.50817 11.875 2.1665C11.875 1.82484 12.1583 1.5415 12.5 1.5415C16.0583 1.5415 18.9583 4.4415 18.9583 7.99984C18.9583 8.3415 18.675 8.62484 18.3333 8.62484Z" fill="#CBCBCB"/>
</g>
</g>
</svg>
