<svg width="20" height="20" viewBox="0 0 20 20" fill="none" xmlns="http://www.w3.org/2000/svg">
<g id="vuesax/outline/sms-edit">
<g id="sms-edit">
<path id="Vector" d="M10.0003 17.7084H5.83366C2.79199 17.7084 1.04199 15.9584 1.04199 12.9167V7.08342C1.04199 4.04175 2.79199 2.29175 5.83366 2.29175H14.167C17.2087 2.29175 18.9587 4.04175 18.9587 7.08342V9.58342C18.9587 9.92508 18.6753 10.2084 18.3337 10.2084C17.992 10.2084 17.7087 9.92508 17.7087 9.58342V7.08342C17.7087 4.70008 16.5503 3.54175 14.167 3.54175H5.83366C3.45033 3.54175 2.29199 4.70008 2.29199 7.08342V12.9167C2.29199 15.3001 3.45033 16.4584 5.83366 16.4584H10.0003C10.342 16.4584 10.6253 16.7417 10.6253 17.0834C10.6253 17.4251 10.342 17.7084 10.0003 17.7084Z" fill="#CBCBCB"/>
<path id="Vector_2" d="M9.99998 10.725C9.29998 10.725 8.59165 10.5083 8.04998 10.0666L5.44164 7.9833C5.17498 7.76663 5.12498 7.37497 5.34165 7.10831C5.55831 6.84164 5.94997 6.79998 6.21664 7.00831L8.82497 9.09164C9.45831 9.59998 10.5333 9.59998 11.1666 9.09164L13.775 7.00831C14.0416 6.79164 14.4333 6.83331 14.65 7.10831C14.8666 7.37497 14.825 7.77496 14.55 7.9833L11.9416 10.0666C11.4083 10.5083 10.7 10.725 9.99998 10.725Z" fill="#CBCBCB"/>
<path id="Vector_3" d="M13.1833 18.1498C12.8666 18.1498 12.5666 18.0332 12.35 17.8165C12.0916 17.5582 11.975 17.1832 12.0333 16.7915L12.1916 15.6665C12.2333 15.3748 12.4083 15.0248 12.6166 14.8165L15.5666 11.8665C15.9666 11.4665 16.3583 11.2582 16.7833 11.2165C17.3 11.1665 17.8166 11.3832 18.3 11.8665C18.7833 12.3498 19 12.8582 18.95 13.3832C18.9083 13.7998 18.6916 14.1998 18.3 14.5998L15.35 17.5498C15.1416 17.7582 14.7916 17.9332 14.5 17.9749L13.375 18.1332C13.3083 18.1415 13.25 18.1498 13.1833 18.1498ZM16.925 12.4582C16.9166 12.4582 16.9083 12.4582 16.9 12.4582C16.7833 12.4665 16.625 12.5748 16.45 12.7498L13.5 15.6998C13.475 15.7248 13.4333 15.8082 13.4333 15.8415L13.2833 16.8832L14.325 16.7332C14.3583 16.7248 14.4416 16.6832 14.4666 16.6582L17.4166 13.7082C17.5916 13.5249 17.7 13.3748 17.7083 13.2582C17.725 13.0915 17.5583 12.8915 17.4166 12.7498C17.2833 12.6165 17.0916 12.4582 16.925 12.4582Z" fill="#CBCBCB"/>
<path id="Vector_4" d="M17.4333 15.2083C17.375 15.2083 17.3167 15.1999 17.2667 15.1833C16.1667 14.8749 15.2917 14 14.9833 12.9C14.8917 12.5666 15.0833 12.2249 15.4167 12.1249C15.75 12.0333 16.0917 12.2249 16.1833 12.5583C16.375 13.2416 16.9167 13.7833 17.6 13.9749C17.9333 14.0666 18.125 14.4166 18.0333 14.75C17.9583 15.025 17.7083 15.2083 17.4333 15.2083Z" fill="#CBCBCB"/>
</g>
</g>
</svg>
