<svg width="32" height="24" viewBox="0 0 32 24" fill="none" xmlns="http://www.w3.org/2000/svg">
<g id="visa" style="mix-blend-mode:luminosity">
<g clip-path="url(#clip0_4696_3906)">
<path id="Vector" d="M0 0H32V24H0V0Z" fill="white"/>
<path id="Vector_2" d="M28.4444 0H3.55556C1.59188 0 0 1.79086 0 4V20C0 22.2091 1.59188 24 3.55556 24H28.4444C30.4081 24 32 22.2091 32 20V4C32 1.79086 30.4081 0 28.4444 0Z" fill="white"/>
<path id="Vector_3" d="M28.4443 0.499756H3.55545C1.83723 0.499756 0.444336 2.06676 0.444336 3.99976V19.9998C0.444336 21.9328 1.83723 23.4998 3.55545 23.4998H28.4443C30.1626 23.4998 31.5554 21.9328 31.5554 19.9998V3.99976C31.5554 2.06676 30.1626 0.499756 28.4443 0.499756Z" stroke="#333333" stroke-opacity="0.07" stroke-width="0.970471"/>
<path id="Vector_4" d="M13.7096 9.11646L11.047 15.803H9.29354L8.00393 10.5139C7.99351 10.3884 7.95213 10.2679 7.88383 10.1641C7.81552 10.0604 7.72265 9.97691 7.61428 9.92195C7.09999 9.66429 6.55803 9.47207 6 9.34937V9.15528H8.78327C8.96743 9.15755 9.14491 9.228 9.28417 9.35413C9.42342 9.48027 9.51545 9.65393 9.54403 9.84431L10.2306 13.7262L11.9376 9.17468L13.7096 9.11646ZM20.51 13.6194C20.51 11.8629 18.1906 11.7658 18.2092 10.97C18.2092 10.7371 18.4318 10.4751 18.905 10.4169C19.4614 10.358 20.0226 10.4586 20.5285 10.708L20.8161 9.29114C20.3226 9.10226 19.8016 9.00378 19.2761 9C17.6525 9 16.4928 9.90254 16.4928 11.2126C16.4928 12.1831 17.3093 12.7072 17.9309 13.0274C18.5524 13.3477 18.7844 13.5709 18.7844 13.862C18.7844 14.3084 18.2741 14.5025 17.801 14.5122C17.2131 14.5284 16.6313 14.3847 16.1125 14.0949L15.7878 15.5603C16.3796 15.7984 17.0091 15.917 17.6432 15.9097C19.3689 15.9097 20.4914 15.0169 20.5007 13.6194H20.51ZM24.7869 15.803H26.2991L24.9817 9.11646H23.5901C23.4388 9.11629 23.291 9.16329 23.1654 9.25145C23.0398 9.33961 22.9422 9.46492 22.885 9.6114L20.4265 15.803H22.1521L22.4861 14.8325H24.5921L24.7869 15.803ZM22.9314 13.435L23.8035 10.9312L24.323 13.4253L22.9314 13.435ZM16.029 9.11646L14.6745 15.803H13.0602L14.4147 9.11646H16.029Z" fill="#1434CB"/>
</g>
</g>
<defs>
<clipPath id="clip0_4696_3906">
<rect width="32" height="24" rx="4" fill="white"/>
</clipPath>
</defs>
</svg>
