<svg width="175" height="30" viewBox="0 0 175 30" fill="none" xmlns="http://www.w3.org/2000/svg">
<g id="g3">
<g id="g5">
<g id="g7">
<g id="g9">
<path id="path11" d="M29.1271 26.9151C21.0452 26.9151 14.4953 21.6262 14.4953 15.1023C14.4953 8.57804 21.0452 3.29415 29.1271 3.29415C31.9758 3.29415 34.6354 3.94984 36.8821 5.08637L29.1271 15.1023L43.7267 8.29886C42.1405 6.25921 39.8655 4.50171 37.1146 3.16806C33.6141 1.47668 28.7447 0.429932 23.3604 0.429932C15.6797 0.429932 8.9414 2.68248 5.18364 6.05578C2.4015 8.54946 0.745117 11.6879 0.745117 15.1021C0.745117 18.5187 2.4015 21.6595 5.18364 24.1549C8.95118 27.5324 15.5891 29.7718 23.1431 29.7718C30.696 29.7718 37.3319 27.5307 41.1018 24.1549C41.3083 23.969 41.5082 23.7814 41.6972 23.5867L41.1279 21.8647C38.4792 24.916 34.0922 26.9151 29.1271 26.9151Z" fill="#C91433"/>
<path id="path13" d="M77.5304 29.062L71.4029 10.6138C70.4186 7.63258 67.055 5.44141 63.0504 5.44141C62.0117 5.44141 61.0166 5.59117 60.0931 5.86228L46.9016 9.73361H60.469L62.7875 16.7215C60.5385 15.1594 57.6095 14.2089 54.4023 14.2089C48.0337 14.2089 42.8774 17.6532 42.8774 21.9019C42.8774 26.151 48.0337 29.6004 54.4023 29.6004C58.9871 29.6004 63.0417 27.7889 65.5427 25.0059L66.8877 29.062H77.5304ZM58.8393 26.1966C55.9016 26.1966 53.5202 24.2764 53.5202 21.9019C53.5202 19.531 55.9016 17.609 58.8393 17.609C61.7771 17.609 64.1607 19.531 64.1607 21.9019C64.1607 24.2764 61.7771 26.1966 58.8393 26.1966Z" fill="#C91433"/>
<path id="path15" d="M102.513 5.44434C101.709 5.44434 100.949 5.58778 100.271 5.84469L91.8009 9.03035C91.3815 6.99543 89.1913 5.44434 86.5491 5.44434C85.7495 5.44434 84.9868 5.58778 84.3002 5.84469L73.9595 9.73339H81.2299V29.062H91.8726V11.8837C91.8726 10.6984 93.0612 9.73356 94.5344 9.73356C95.9989 9.73356 97.1961 10.6984 97.1961 11.8837V29.062H107.835V9.73339C107.835 7.36299 105.451 5.44434 102.513 5.44434Z" fill="#C91433"/>
<path id="path17" d="M169.256 5.44434C168.45 5.44434 167.685 5.58778 166.996 5.84469L158.535 9.03035C158.118 6.99543 155.927 5.44434 153.285 5.44434C152.486 5.44434 151.723 5.58778 151.034 5.84469L140.698 9.73339H147.966V29.062H158.607V11.8837C158.607 10.6984 159.797 9.73356 161.27 9.73356C162.739 9.73356 163.928 10.6984 163.928 11.8837V29.062H174.575V9.73339C174.575 7.36299 172.189 5.44434 169.256 5.44434Z" fill="#C91433"/>
<path id="path19" d="M142.418 17.6086C142.418 24.327 135.671 29.772 127.349 29.772C119.021 29.772 112.27 24.327 112.27 17.6086C112.27 10.892 119.021 5.44434 127.349 5.44434C135.671 5.44434 142.418 10.8922 142.418 17.6086ZM127.973 9.1361C127.499 7.70478 125.676 6.85514 123.903 7.23989C122.132 7.62306 121.074 9.09524 121.55 10.5264L126.719 26.0806C127.197 27.5134 129.016 28.3621 130.789 27.9833C132.562 27.5958 133.616 26.1245 133.14 24.6935L127.973 9.1361Z" fill="#C91433"/>
</g>
</g>
</g>
</g>
</svg>
