<svg width="91" height="91" viewBox="0 0 91 91" fill="none" xmlns="http://www.w3.org/2000/svg">
<g id="huawei-svgrepo-com 1" clip-path="url(#clip0_3411_22702)">
<path id="Vector" d="M14.3632 23.7335C14.3632 23.7335 7.4355 30.3617 7.06103 37.3643V38.6749C7.36061 44.3295 11.6296 47.6623 11.6296 47.6623C18.4824 54.3653 35.0715 62.7909 38.966 64.7007C38.966 64.7007 39.1907 64.8131 39.3405 64.6633L39.4154 64.5135V64.3637C28.7804 41.1839 14.3632 23.7335 14.3632 23.7335ZM36.7566 70.3927C36.6817 70.0931 36.3822 70.0931 36.3822 70.0931L8.74615 71.0667C11.7419 76.4217 16.7973 80.5409 22.0773 79.3051C25.6723 78.3689 33.9107 72.6395 36.6069 70.6923C36.8315 70.505 36.7566 70.3553 36.7566 70.3553V70.3927ZM37.0562 67.4718C24.9233 59.2709 1.40651 46.7261 1.40651 46.7261C0.8448 48.4487 0.657564 50.0963 0.620117 51.5942V51.8563C0.620117 55.8632 2.118 58.6717 2.118 58.6717C5.11378 65.0003 10.8806 66.9101 10.8806 66.9101C13.5019 68.0335 16.1232 68.071 16.1232 68.071C16.5726 68.1459 32.6 68.071 36.869 68.071C37.0562 68.071 37.1686 67.8837 37.1686 67.8837V67.6591C37.1686 67.5467 37.0562 67.4718 37.0562 67.4718ZM34.5473 12.6866C31.8922 13.3645 29.5246 14.8761 27.7924 16.9993C26.0601 19.1225 25.0545 21.7454 24.9233 24.4825V26.0178C25.0357 28.2646 25.5225 29.9498 25.5225 29.9498C27.994 40.8094 39.9771 58.5968 42.561 62.3416C42.7482 62.5288 42.9354 62.4539 42.9354 62.4539C43.0073 62.4228 43.0677 62.37 43.108 62.3028C43.1483 62.2356 43.1665 62.1575 43.1601 62.0794C47.1295 22.3854 39.0035 11.8253 39.0035 11.8253C37.8052 11.9002 34.5473 12.6866 34.5473 12.6866ZM65.6247 21.1871C65.6247 21.1871 63.7898 14.4466 56.4876 12.6492C56.4876 12.6492 54.3531 12.1249 52.1062 11.8253C52.1062 11.8253 43.9428 22.348 47.9122 62.1169C47.9496 62.379 48.1368 62.4164 48.1368 62.4164C48.399 62.5288 48.5113 62.3041 48.5113 62.3041C51.2075 58.4471 63.1157 40.7345 65.5498 29.9498C65.5498 29.9498 66.8979 24.7071 65.6247 21.1871ZM54.6901 70.1306C54.6901 70.1306 54.428 70.1306 54.3531 70.3178C54.3531 70.3178 54.3156 70.5799 54.4654 70.6923C57.0867 72.6021 65.1379 78.1817 68.9949 79.3051C68.9949 79.3051 69.5941 79.4924 70.6051 79.5298H71.1294C73.7133 79.4549 78.2444 78.1443 82.3636 71.0667L54.6526 70.1306H54.6901ZM84.0112 38.6375C84.5355 30.9234 76.7465 23.771 76.7465 23.7335C76.7465 23.7335 62.3293 41.1839 51.7692 64.1765C51.7692 64.1765 51.6569 64.476 51.8441 64.6633L51.9939 64.7007H52.2186C56.188 62.716 72.6647 54.3279 79.4801 47.6997C79.4801 47.6997 83.7865 44.2171 84.0112 38.6375ZM89.7032 46.6512C89.7032 46.6512 66.1864 59.2709 54.0535 67.4344C54.0535 67.4344 53.8663 67.5842 53.9412 67.8463C53.9412 67.8463 54.0535 68.071 54.2033 68.071C58.5472 68.071 75.0239 68.071 75.4358 67.9961C75.4358 67.9961 77.5703 67.9212 80.1916 66.9101C80.1916 66.9101 86.0334 65.0378 89.0666 58.4096C89.0666 58.4096 91.8002 52.9798 89.7032 46.6512Z" fill="#C91433"/>
</g>
<defs>
<clipPath id="clip0_3411_22702">
<rect width="89.8732" height="89.8732" fill="white" transform="translate(0.620117 0.741577)"/>
</clipPath>
</defs>
</svg>
