<svg width="20" height="20" viewBox="0 0 20 20" fill="none" xmlns="http://www.w3.org/2000/svg">
<g id="vuesax/outline/shop">
<g id="shop">
<path id="Vector" d="M12.2505 18.9583H7.75046C3.63379 18.9583 1.88379 17.2 1.88379 13.0916V9.34998C1.88379 9.00831 2.16712 8.72498 2.50879 8.72498C2.85046 8.72498 3.13379 9.00831 3.13379 9.34998V13.0916C3.13379 16.5 4.34212 17.7083 7.75046 17.7083H12.2421C15.6505 17.7083 16.8588 16.5 16.8588 13.0916V9.34998C16.8588 9.00831 17.1421 8.72498 17.4838 8.72498C17.8255 8.72498 18.1088 9.00831 18.1088 9.34998V13.0916C18.1171 17.2 16.3588 18.9583 12.2505 18.9583Z" fill="#0C68F4"/>
<path id="Vector_2" d="M10.0002 10.625C9.0835 10.625 8.25016 10.2666 7.6585 9.60829C7.06683 8.94996 6.79183 8.09163 6.8835 7.17496L7.44183 1.60829C7.47516 1.29163 7.74183 1.04163 8.06683 1.04163H11.9585C12.2835 1.04163 12.5502 1.28329 12.5835 1.60829L13.1418 7.17496C13.2335 8.09163 12.9585 8.94996 12.3668 9.60829C11.7502 10.2666 10.9168 10.625 10.0002 10.625ZM8.62516 2.29163L8.12516 7.29996C8.06683 7.85829 8.2335 8.38329 8.5835 8.76663C9.29183 9.54996 10.7085 9.54996 11.4168 8.76663C11.7668 8.37496 11.9335 7.84996 11.8752 7.29996L11.3752 2.29163H8.62516Z" fill="#0C68F4"/>
<path id="Vector_3" d="M15.258 10.625C13.5663 10.625 12.058 9.25829 11.883 7.57496L11.2997 1.73329C11.283 1.55829 11.3413 1.38329 11.458 1.24996C11.5747 1.11663 11.7413 1.04163 11.9247 1.04163H14.4663C16.9163 1.04163 18.058 2.06663 18.3997 4.58329L18.633 6.89996C18.733 7.88329 18.433 8.81663 17.7913 9.52496C17.1497 10.2333 16.2497 10.625 15.258 10.625ZM12.6163 2.29163L13.133 7.44996C13.2413 8.49163 14.208 9.37496 15.258 9.37496C15.8913 9.37496 16.458 9.13329 16.8663 8.69163C17.2663 8.24996 17.4497 7.65829 17.3913 7.02496L17.158 4.73329C16.8997 2.84996 16.2913 2.29163 14.4663 2.29163H12.6163Z" fill="#0C68F4"/>
<path id="Vector_4" d="M4.69953 10.625C3.70786 10.625 2.80786 10.2333 2.1662 9.52496C1.52453 8.81663 1.22453 7.88329 1.32453 6.89996L1.54953 4.60829C1.89953 2.06663 3.0412 1.04163 5.4912 1.04163H8.03286C8.20786 1.04163 8.37453 1.11663 8.49953 1.24996C8.62453 1.38329 8.67453 1.55829 8.65786 1.73329L8.07453 7.57496C7.89953 9.25829 6.3912 10.625 4.69953 10.625ZM5.4912 2.29163C3.6662 2.29163 3.05786 2.84163 2.7912 4.74996L2.5662 7.02496C2.49953 7.65829 2.6912 8.24996 3.0912 8.69163C3.4912 9.13329 4.05786 9.37496 4.69953 9.37496C5.74953 9.37496 6.72453 8.49163 6.82453 7.44996L7.3412 2.29163H5.4912Z" fill="#0C68F4"/>
<path id="Vector_5" d="M12.0837 18.9583H7.91699C7.57533 18.9583 7.29199 18.675 7.29199 18.3333V16.25C7.29199 14.5 8.25033 13.5416 10.0003 13.5416C11.7503 13.5416 12.7087 14.5 12.7087 16.25V18.3333C12.7087 18.675 12.4253 18.9583 12.0837 18.9583ZM8.54199 17.7083H11.4587V16.25C11.4587 15.2 11.0503 14.7916 10.0003 14.7916C8.95033 14.7916 8.54199 15.2 8.54199 16.25V17.7083Z" fill="#0C68F4"/>
</g>
</g>
</svg>
