<svg width="20" height="20" viewBox="0 0 20 20" fill="none" xmlns="http://www.w3.org/2000/svg">
<g id="vuesax/outline/truck">
<g id="truck">
<path id="Vector" d="M10.8337 12.2916H1.66699C1.32533 12.2916 1.04199 12.0083 1.04199 11.6666V4.99996C1.04199 2.81663 2.81699 1.04163 5.00033 1.04163H12.5003C12.842 1.04163 13.1253 1.32496 13.1253 1.66663V9.99996C13.1253 11.2666 12.1003 12.2916 10.8337 12.2916ZM2.29199 11.0416H10.8337C11.4087 11.0416 11.8753 10.575 11.8753 9.99996V2.29163H5.00033C3.50866 2.29163 2.29199 3.50829 2.29199 4.99996V11.0416Z" fill="#0C68F4"/>
<path id="Vector_2" d="M15.8337 17.2916H15.0003C14.6587 17.2916 14.3753 17.0083 14.3753 16.6666C14.3753 16.0916 13.9087 15.625 13.3337 15.625C12.7587 15.625 12.292 16.0916 12.292 16.6666C12.292 17.0083 12.0087 17.2916 11.667 17.2916H8.33366C7.99199 17.2916 7.70866 17.0083 7.70866 16.6666C7.70866 16.0916 7.24199 15.625 6.66699 15.625C6.09199 15.625 5.62533 16.0916 5.62533 16.6666C5.62533 17.0083 5.34199 17.2916 5.00033 17.2916H4.16699C2.44199 17.2916 1.04199 15.8916 1.04199 14.1666V11.6666C1.04199 11.325 1.32533 11.0416 1.66699 11.0416H10.8337C11.4087 11.0416 11.8753 10.575 11.8753 9.99996V4.16663C11.8753 3.82496 12.1587 3.54163 12.5003 3.54163H14.0337C14.8587 3.54163 15.617 3.9833 16.0253 4.69997L17.4503 7.19163C17.5587 7.3833 17.5587 7.62496 17.4503 7.81663C17.342 8.0083 17.1337 8.12496 16.9087 8.12496H15.8337C15.717 8.12496 15.6253 8.21663 15.6253 8.33329V10.8333C15.6253 10.95 15.717 11.0416 15.8337 11.0416H18.3337C18.6753 11.0416 18.9587 11.325 18.9587 11.6666V14.1666C18.9587 15.8916 17.5587 17.2916 15.8337 17.2916ZM15.542 16.0416H15.8337C16.867 16.0416 17.7087 15.2 17.7087 14.1666V12.2916H15.8337C15.0337 12.2916 14.3753 11.6333 14.3753 10.8333V8.33329C14.3753 7.53329 15.0253 6.87496 15.8337 6.87496L14.942 5.31663C14.7587 4.99163 14.4087 4.79163 14.0337 4.79163H13.1253V9.99996C13.1253 11.2666 12.1003 12.2916 10.8337 12.2916H2.29199V14.1666C2.29199 15.2 3.13366 16.0416 4.16699 16.0416H4.45866C4.73366 15.0833 5.61699 14.375 6.66699 14.375C7.71699 14.375 8.60032 15.0833 8.87532 16.0416H11.1336C11.4086 15.0833 12.292 14.375 13.342 14.375C14.392 14.375 15.267 15.0833 15.542 16.0416Z" fill="#0C68F4"/>
<path id="Vector_3" d="M6.66667 18.9583C5.4 18.9583 4.375 17.9333 4.375 16.6667C4.375 15.4 5.4 14.375 6.66667 14.375C7.93333 14.375 8.95833 15.4 8.95833 16.6667C8.95833 17.9333 7.93333 18.9583 6.66667 18.9583ZM6.66667 15.625C6.09167 15.625 5.625 16.0917 5.625 16.6667C5.625 17.2417 6.09167 17.7083 6.66667 17.7083C7.24167 17.7083 7.70833 17.2417 7.70833 16.6667C7.70833 16.0917 7.24167 15.625 6.66667 15.625Z" fill="#0C68F4"/>
<path id="Vector_4" d="M13.3337 18.9583C12.067 18.9583 11.042 17.9333 11.042 16.6667C11.042 15.4 12.067 14.375 13.3337 14.375C14.6003 14.375 15.6253 15.4 15.6253 16.6667C15.6253 17.9333 14.6003 18.9583 13.3337 18.9583ZM13.3337 15.625C12.7587 15.625 12.292 16.0917 12.292 16.6667C12.292 17.2417 12.7587 17.7083 13.3337 17.7083C13.9087 17.7083 14.3753 17.2417 14.3753 16.6667C14.3753 16.0917 13.9087 15.625 13.3337 15.625Z" fill="#0C68F4"/>
<path id="Vector_5" d="M18.3333 12.2917H15.8333C15.0333 12.2917 14.375 11.6333 14.375 10.8333V8.33333C14.375 7.53333 15.0333 6.875 15.8333 6.875H16.9083C17.1333 6.875 17.3417 6.99167 17.45 7.19167L18.875 9.69167C18.925 9.78334 18.9583 9.89167 18.9583 10V11.6667C18.9583 12.0083 18.675 12.2917 18.3333 12.2917ZM15.8333 8.125C15.7167 8.125 15.625 8.21667 15.625 8.33333V10.8333C15.625 10.95 15.7167 11.0417 15.8333 11.0417H17.7083V10.1667L16.5417 8.125H15.8333Z" fill="#0C68F4"/>
</g>
</g>
</svg>
