<svg width="32" height="32" viewBox="0 0 32 32" fill="none" xmlns="http://www.w3.org/2000/svg">
<g id="Facebook">
<path id="Vector" fill-rule="evenodd" clip-rule="evenodd" d="M23.9998 5.33341H7.99984C6.52708 5.33341 5.33317 6.52732 5.33317 8.00008V24.0001C5.33317 25.4729 6.52708 26.6667 7.99984 26.6667H23.9998C25.4726 26.6667 26.6665 25.4729 26.6665 24.0001V8.00008C26.6665 6.52732 25.4726 5.33341 23.9998 5.33341ZM7.99984 2.66675C5.05432 2.66675 2.6665 5.05456 2.6665 8.00008V24.0001C2.6665 26.9455 5.05432 29.3334 7.99984 29.3334H23.9998C26.9453 29.3334 29.3332 26.9455 29.3332 24.0001V8.00008C29.3332 5.05456 26.9453 2.66675 23.9998 2.66675H7.99984Z" fill="white"/>
<path id="Vector_2" fill-rule="evenodd" clip-rule="evenodd" d="M15.8891 13.3333C15.8891 11.1241 17.6799 9.33325 19.8891 9.33325H22.6668V11.9999H19.8891C19.1527 11.9999 18.5558 12.5969 18.5558 13.3333V15.9999H22.6668V18.6666H18.5558V26.6666H15.8891V18.6666H13.3335V15.9999H15.8891V13.3333Z" fill="white"/>
</g>
</svg>
