<svg width="32" height="24" viewBox="0 0 32 24" fill="none" xmlns="http://www.w3.org/2000/svg">
<g id="paypal" style="mix-blend-mode:luminosity">
<g clip-path="url(#clip0_4696_3918)">
<path id="Vector" d="M0 0H32V24H0V0Z" fill="white"/>
<path id="Vector_2" d="M28.4444 0H3.55556C1.59188 0 0 1.79086 0 4V20C0 22.2091 1.59188 24 3.55556 24H28.4444C30.4081 24 32 22.2091 32 20V4C32 1.79086 30.4081 0 28.4444 0Z" fill="white"/>
<path id="Vector_3" d="M28.4443 0.499756H3.55545C1.83723 0.499756 0.444336 2.06676 0.444336 3.99976V19.9998C0.444336 21.9328 1.83723 23.4998 3.55545 23.4998H28.4443C30.1626 23.4998 31.5554 21.9328 31.5554 19.9998V3.99976C31.5554 2.06676 30.1626 0.499756 28.4443 0.499756Z" stroke="#333333" stroke-opacity="0.07" stroke-width="0.970471"/>
<g id="Group 61429">
<path id="Vector_4" d="M7.12246 8.612C6.90583 8.40202 6.64624 8.24154 6.36157 8.14162C6.07691 8.04171 5.77395 8.00475 5.47362 8.03327H3.28972C3.21339 8.03475 3.13999 8.06284 3.08217 8.11268C3.02435 8.16252 2.98575 8.23099 2.97305 8.30626L2.00122 14.0717C1.99813 14.0993 2.00093 14.1273 2.00941 14.1537C2.01789 14.1802 2.03188 14.2044 2.05046 14.225C2.06902 14.2457 2.09175 14.2622 2.11714 14.2734C2.14253 14.2847 2.17001 14.2903 2.19777 14.2901H3.28972C3.35504 14.2873 3.41803 14.265 3.47057 14.2261C3.52311 14.1871 3.5628 14.1334 3.58455 14.0717L3.82477 12.4993C3.83289 12.4241 3.86864 12.3544 3.92512 12.3041C3.98161 12.2536 4.05479 12.2259 4.13052 12.2263H4.84029C5.15424 12.2626 5.47231 12.234 5.77469 12.142C6.07708 12.0501 6.35733 11.897 6.59801 11.6921C6.83869 11.4873 7.03466 11.2352 7.17373 10.9514C7.31279 10.6676 7.39197 10.3582 7.40637 10.0424C7.46789 9.79784 7.47433 9.54268 7.42522 9.29531C7.37613 9.04794 7.27272 8.81455 7.12246 8.612ZM5.73568 10.1298C5.61557 10.9378 4.99316 10.9378 4.40351 10.9378H4.065L4.29431 9.42004C4.30178 9.3756 4.3243 9.33507 4.35809 9.30525C4.39189 9.27544 4.43491 9.25813 4.47994 9.25625H4.63282C5.03684 9.25625 5.42994 9.25625 5.61557 9.48556C5.68354 9.5766 5.72972 9.68202 5.75055 9.79369C5.77137 9.90539 5.76628 10.0204 5.73568 10.1298Z" fill="#253B80"/>
<path id="Vector_5" d="M12.2222 10.0965H11.1302C11.0858 10.0989 11.0431 10.1148 11.008 10.1423C10.9729 10.1696 10.9469 10.2069 10.9337 10.2494V10.566L10.8572 10.4459C10.6919 10.2796 10.4911 10.1528 10.2699 10.0753C10.0485 9.99779 9.81257 9.97137 9.57965 9.99823C8.98225 10.0121 8.40974 10.2403 7.96674 10.6413C7.5237 11.0422 7.23964 11.5891 7.16641 12.1821C7.11118 12.4733 7.11865 12.773 7.18832 13.061C7.25799 13.3491 7.38825 13.619 7.57044 13.8528C7.74125 14.0419 7.95309 14.1893 8.1896 14.284C8.42623 14.3787 8.68131 14.4179 8.9354 14.3988C9.21221 14.4017 9.48684 14.3481 9.74224 14.2411C9.99754 14.134 10.2284 13.9759 10.4205 13.7764V14.093C10.4173 14.1435 10.4338 14.1932 10.4662 14.2317C10.4987 14.2704 10.5449 14.295 10.5952 14.3005H11.567C11.6429 14.304 11.7174 14.2791 11.7759 14.2306C11.8344 14.1822 11.8729 14.1137 11.8837 14.0384L12.4624 10.3149C12.4746 10.2821 12.4768 10.2465 12.4686 10.2125C12.4604 10.1785 12.4422 10.1477 12.4163 10.1242C12.3904 10.1008 12.3581 10.0855 12.3235 10.0806C12.2889 10.0756 12.2535 10.0812 12.2222 10.0965ZM9.4923 13.2522C9.35875 13.2597 9.22532 13.238 9.10094 13.1891C8.97646 13.1401 8.86421 13.0647 8.77161 12.9683C8.69179 12.8575 8.63523 12.7317 8.6052 12.5985C8.57517 12.4653 8.57233 12.3274 8.5969 12.193C8.63141 11.8947 8.77358 11.6192 8.99666 11.4182C9.21986 11.2172 9.50857 11.1045 9.80896 11.1011C9.94425 11.095 10.0792 11.1192 10.204 11.1722C10.3287 11.225 10.44 11.3053 10.5296 11.4068C10.619 11.5105 10.6823 11.6337 10.7146 11.7666C10.7469 11.8995 10.7472 12.0382 10.7153 12.1712C10.6826 12.4714 10.5393 12.7485 10.313 12.9485C10.0868 13.1484 9.79411 13.2567 9.4923 13.2522Z" fill="#253B80"/>
<path id="Vector_6" d="M17.9656 10.0967H16.8736C16.8215 10.0961 16.77 10.1088 16.7241 10.1336C16.6783 10.1585 16.6395 10.1947 16.6116 10.2387L15.1156 12.4226L14.4823 10.2933C14.4617 10.2279 14.4212 10.1705 14.3663 10.1295C14.3115 10.0883 14.2451 10.0654 14.1765 10.064H13.0846C13.0545 10.0639 13.0248 10.071 12.9981 10.0848C12.9713 10.0987 12.9484 10.1189 12.9313 10.1436C12.914 10.1684 12.9031 10.1969 12.8994 10.2268C12.8957 10.2566 12.8993 10.2869 12.9099 10.3151L14.1001 13.853L13.0081 15.4473C12.9879 15.4752 12.9758 15.5082 12.9732 15.5426C12.9706 15.5769 12.9777 15.6114 12.9935 15.642C13.0093 15.6725 13.0335 15.6982 13.0631 15.7159C13.0926 15.7336 13.1266 15.7426 13.161 15.7421H14.2529C14.3043 15.745 14.3555 15.7345 14.4015 15.7115C14.4474 15.6885 14.4866 15.6539 14.515 15.6111L18.1184 10.3588C18.1309 10.3318 18.1366 10.3021 18.135 10.2724C18.1335 10.2427 18.125 10.2139 18.11 10.1881C18.095 10.1625 18.0741 10.1407 18.049 10.1249C18.0238 10.109 17.9953 10.0993 17.9656 10.0967Z" fill="#253B80"/>
<path id="Vector_7" d="M23.2071 8.61159C22.9901 8.4022 22.7304 8.24211 22.4458 8.14224C22.1613 8.04236 21.8586 8.00505 21.5583 8.03285H19.298C19.2234 8.03265 19.1515 8.06069 19.0968 8.11134C19.0421 8.162 19.0086 8.23149 19.0031 8.30584L18.075 14.0713C18.0718 14.0989 18.0747 14.1269 18.0832 14.1533C18.0916 14.1797 18.1057 14.2041 18.1242 14.2247C18.1428 14.2452 18.1655 14.2617 18.1908 14.273C18.2163 14.2842 18.2437 14.2899 18.2715 14.2897H19.429C19.4814 14.2874 19.5312 14.2662 19.5693 14.2301C19.6074 14.194 19.6312 14.1454 19.6365 14.0931L19.8985 12.4443C19.9088 12.3699 19.9453 12.3017 20.0013 12.2517C20.0572 12.2017 20.1292 12.1733 20.2043 12.1713H20.925C21.2384 12.2044 21.5551 12.1734 21.8562 12.0802C22.1572 11.9871 22.4362 11.8338 22.6761 11.6296C22.9161 11.4253 23.1121 11.1745 23.2522 10.8922C23.3922 10.6099 23.4735 10.3021 23.4911 9.9874C23.5395 9.75088 23.5393 9.50685 23.4905 9.27031C23.4417 9.03378 23.3453 8.80965 23.2071 8.61159ZM21.8095 10.1621C21.7003 10.9702 21.0778 10.9702 20.4773 10.9702H20.1388L20.379 9.45239C20.3803 9.42942 20.3863 9.40696 20.3964 9.38629C20.4064 9.36563 20.4205 9.34715 20.4377 9.33193C20.455 9.31671 20.4751 9.30505 20.4968 9.29761C20.5187 9.29018 20.5416 9.28711 20.5646 9.28859H20.7284C21.1324 9.28859 21.5146 9.28859 21.7112 9.5179C21.7706 9.60674 21.8101 9.70742 21.827 9.8129C21.8441 9.91849 21.8381 10.0264 21.8095 10.1294V10.1621Z" fill="#179BD7"/>
<path id="Vector_8" d="M28.2952 10.097H27.2032C27.1578 10.0958 27.1135 10.1105 27.0776 10.1383C27.0418 10.1663 27.0167 10.2056 27.0067 10.2499V10.5666L26.9302 10.4464C26.7675 10.2796 26.5688 10.1524 26.3491 10.0747C26.1294 9.99711 25.8948 9.97112 25.6636 9.99875C25.0662 10.0126 24.4936 10.2408 24.0506 10.6417C23.6076 11.0426 23.3235 11.5896 23.2504 12.1826C23.1891 12.4736 23.1936 12.7746 23.2636 13.0636C23.3335 13.3527 23.4669 13.6224 23.6544 13.8533C23.8224 14.0428 24.0322 14.1907 24.2672 14.2855C24.5021 14.3802 24.7558 14.4192 25.0084 14.3993C25.2868 14.4018 25.5629 14.348 25.8199 14.241C26.0771 14.1341 26.3099 13.9762 26.5044 13.7769V14.0936C26.5012 14.1197 26.5037 14.1462 26.5117 14.1713C26.5195 14.1964 26.5328 14.2196 26.5503 14.2391C26.5679 14.2588 26.5894 14.2744 26.6134 14.2851C26.6376 14.2958 26.6637 14.3011 26.69 14.301H27.6618C27.7359 14.3018 27.8077 14.2756 27.8639 14.2274C27.9202 14.1792 27.957 14.1122 27.9676 14.039L28.5026 10.3154C28.5081 10.2865 28.5066 10.2567 28.4983 10.2285C28.49 10.2002 28.475 10.1744 28.4548 10.153C28.4345 10.1317 28.4095 10.1156 28.3818 10.1058C28.3539 10.096 28.3243 10.093 28.2952 10.097ZM25.5762 13.2528C25.4409 13.2609 25.3056 13.2399 25.1793 13.1908C25.0531 13.1418 24.9388 13.0661 24.8446 12.9688C24.7643 12.8583 24.7083 12.7322 24.68 12.5987C24.6519 12.465 24.6521 12.327 24.6808 12.1936C24.7105 11.8952 24.8497 11.6184 25.0715 11.4168C25.2934 11.2151 25.5821 11.1028 25.882 11.1016C26.021 11.0894 26.1608 11.111 26.2896 11.1647C26.4184 11.2185 26.5322 11.3026 26.6213 11.41C26.7104 11.5173 26.7722 11.6447 26.8013 11.7812C26.8303 11.9176 26.8258 12.0591 26.7883 12.1936C26.7555 12.4898 26.6128 12.763 26.3884 12.9591C26.164 13.1552 25.8741 13.26 25.5762 13.2528Z" fill="#179BD7"/>
<path id="Vector_9" d="M30.7956 8.00043H29.7037C29.659 7.9973 29.6149 8.0114 29.5804 8.03985C29.5458 8.06829 29.5235 8.1089 29.5181 8.1533L28.6445 14.0717C28.6397 14.0987 28.6409 14.1264 28.648 14.1528C28.6551 14.1792 28.668 14.2038 28.6858 14.2247C28.7035 14.2455 28.7256 14.2622 28.7506 14.2736C28.7755 14.2848 28.8027 14.2905 28.8301 14.2901H29.7583C29.8323 14.2908 29.9042 14.2646 29.9604 14.2165C30.0166 14.1682 30.0534 14.1013 30.064 14.028L30.9813 8.2079C30.9843 8.18176 30.9818 8.15525 30.9739 8.13014C30.966 8.10504 30.9528 8.0819 30.9353 8.06228C30.9177 8.04265 30.8962 8.027 30.8721 8.01634C30.848 8.00567 30.8219 8.00025 30.7956 8.00043Z" fill="#179BD7"/>
</g>
</g>
</g>
<defs>
<clipPath id="clip0_4696_3918">
<rect width="32" height="24" rx="4" fill="white"/>
</clipPath>
</defs>
</svg>
