<svg width="32" height="32" viewBox="0 0 32 32" fill="none" xmlns="http://www.w3.org/2000/svg">
<g id="Youtube">
<path id="Vector" fill-rule="evenodd" clip-rule="evenodd" d="M13.3332 12.7098V19.2901L18.8168 16L13.3332 12.7098ZM10.6665 21.6451C10.6665 22.6815 11.7971 23.3216 12.6858 22.7884L22.0942 17.1433C22.9574 16.6255 22.9574 15.3745 22.0942 14.8567L12.6858 9.2116C11.7971 8.67838 10.6665 9.31854 10.6665 10.3549V21.6451Z" fill="white"/>
<path id="Vector_2" fill-rule="evenodd" clip-rule="evenodd" d="M26.6665 23.3706V8.6296C26.6665 7.57415 26.0968 6.9152 25.4714 6.72333C23.3233 6.06428 20.0296 5.33341 15.9998 5.33341C11.9701 5.33341 8.6764 6.06428 6.52824 6.72333C5.90286 6.9152 5.33317 7.57415 5.33317 8.6296V23.3706C5.33317 24.4259 5.90286 25.085 6.52824 25.2769C8.6764 25.9358 11.9701 26.6667 15.9998 26.6667C20.0296 26.6667 23.3233 25.9358 25.4714 25.2769C26.0968 25.085 26.6665 24.4259 26.6665 23.3706ZM5.7461 4.17395C3.81482 4.76645 2.6665 6.60948 2.6665 8.6296V23.3706C2.6665 25.3907 3.81482 27.2337 5.7461 27.8262C8.09054 28.5454 11.6512 29.3334 15.9998 29.3334C20.3485 29.3334 23.9092 28.5454 26.2536 27.8262C28.1849 27.2337 29.3332 25.3907 29.3332 23.3706V8.6296C29.3332 6.60948 28.1849 4.76645 26.2536 4.17395C23.9092 3.45468 20.3485 2.66675 15.9998 2.66675C11.6512 2.66675 8.09054 3.45468 5.7461 4.17395Z" fill="white"/>
</g>
</svg>
