<svg width="153" height="50" viewBox="0 0 153 50" fill="none" xmlns="http://www.w3.org/2000/svg">
<g id="Clip path group">
<mask id="mask0_3411_22696" style="mask-type:luminance" maskUnits="userSpaceOnUse" x="0" y="0" width="154" height="50">
<g id="clip-path">
<path id="logo-red" d="M0.394043 49.5243V0.498291H153V49.5243H0.394043Z" fill="white"/>
</g>
</mask>
<g mask="url(#mask0_3411_22696)">
<g id="Mask Group 2">
<g id="LenovoLogo-POS-1Color">
<path id="logo-red_2" d="M0.396973 49.5243V0.498291H153.003V49.5243H0.396973ZM32.224 31.2621H20.002V10.844H14.55V36.1708H32.224V31.2621ZM50.8419 19.5473C49.8684 18.4788 48.6697 17.6378 47.3317 17.0845C45.9936 16.5313 44.5493 16.2795 43.1021 16.3472C41.749 16.3014 40.4007 16.529 39.1383 17.0163C37.8759 17.5035 36.7257 18.2402 35.757 19.1821C34.7882 20.124 34.021 21.2514 33.5016 22.4966C32.9822 23.7417 32.7213 25.0787 32.7347 26.4269C32.7347 32.31 37.2034 36.5066 43.6978 36.5066C47.1057 36.5116 50.377 35.1724 52.7963 32.7819L49.3959 30.1811C47.8542 31.5501 45.849 32.2867 43.7839 32.2426C42.9917 32.2793 42.2001 32.1588 41.4551 31.888C40.7101 31.6171 40.0267 31.2015 39.4445 30.6652L53.1938 24.9868C52.9485 22.9877 52.1346 21.1 50.8481 19.5461L50.8419 19.5473ZM74.8344 24.0945C74.8684 23.0533 74.6846 22.0165 74.2945 21.0499C73.9044 20.0834 73.3166 19.2082 72.5685 18.4801C71.8204 17.752 70.9283 17.1869 69.9491 16.8208C68.9698 16.4546 67.9248 16.2954 66.8804 16.3533C65.6489 16.3589 64.4348 16.6428 63.3294 17.1835C62.2241 17.7243 61.2564 18.5078 60.4992 19.475V16.6671H55.1198V36.1647H60.4992V25.0689C60.5063 24.5048 60.628 23.948 60.8569 23.4319C61.0858 22.9159 61.4172 22.4513 61.8311 22.0662C62.2451 21.6811 62.733 21.3834 63.2655 21.1911C63.798 20.9987 64.3641 20.9157 64.9297 20.947C65.4995 20.9179 66.0694 21.0018 66.6064 21.1938C67.1434 21.3858 67.6367 21.6822 68.0577 22.0657C68.4787 22.4492 68.819 22.9121 69.0589 23.4277C69.2988 23.9432 69.4334 24.5011 69.455 25.0689V36.1647H74.8344V24.092V24.0945ZM87.5191 16.3533C85.5323 16.4233 83.6101 17.074 81.9921 18.2244C80.3741 19.3748 79.1318 20.974 78.42 22.8227C77.7083 24.6713 77.5585 26.6877 77.9894 28.6205C78.4204 30.5534 79.4129 32.3171 80.8434 33.6921C82.2739 35.067 84.079 35.9923 86.0338 36.3527C87.9887 36.713 90.0068 36.4925 91.8366 35.7185C93.6665 34.9446 95.2272 33.6514 96.3242 32.0003C97.4212 30.3491 98.0061 28.4129 98.0059 26.433C97.9921 25.0821 97.7088 23.7474 97.1724 22.5065C96.6361 21.2656 95.8574 20.1433 94.8816 19.2048C93.9058 18.2663 92.7524 17.5304 91.4885 17.0398C90.2245 16.5492 88.8753 16.3138 87.5191 16.3472V16.3533ZM113.043 16.6769L108.183 29.9555L103.319 16.6769H97.1813L105.236 36.1647H111.126L119.181 16.6769H113.043ZM128.909 16.3472C126.922 16.4172 125 17.0679 123.382 18.2183C121.764 19.3687 120.521 20.9679 119.81 22.8165C119.098 24.6652 118.948 26.6816 119.379 28.6144C119.81 30.5472 120.802 32.311 122.233 33.686C123.663 35.0609 125.469 35.9862 127.423 36.3466C129.378 36.7069 131.396 36.4864 133.226 35.7124C135.056 34.9384 136.617 33.6453 137.714 31.9941C138.811 30.343 139.396 28.4068 139.395 26.4269C139.381 25.0765 139.097 23.7425 138.56 22.5023C138.023 21.2621 137.245 20.1405 136.269 19.2027C135.293 18.2648 134.14 17.5295 132.877 17.0393C131.613 16.549 130.264 16.3138 128.909 16.3472ZM128.909 31.9129C128.2 31.903 127.5 31.7524 126.85 31.4699C126.2 31.1874 125.613 30.7787 125.124 30.2676C124.635 29.7566 124.252 29.1534 124 28.4935C123.748 27.8336 123.63 27.1302 123.654 26.4244C123.604 25.7188 123.701 25.0106 123.939 24.3442C124.178 23.6778 124.552 23.0677 125.038 22.5522C125.524 22.0367 126.112 21.6269 126.765 21.3485C127.418 21.0702 128.122 20.9293 128.832 20.9348C129.541 20.9446 130.241 21.0953 130.891 21.3778C131.541 21.6604 132.128 22.0693 132.618 22.5805C133.107 23.0917 133.489 23.695 133.741 24.355C133.994 25.015 134.111 25.7186 134.087 26.4244C134.131 27.1286 134.029 27.8342 133.789 28.4977C133.548 29.1612 133.173 29.7686 132.688 30.2826C132.203 30.7965 131.617 31.2061 130.967 31.4861C130.317 31.766 129.616 31.9104 128.907 31.9105L128.909 31.9129ZM87.5204 31.9129C86.8114 31.903 86.1114 31.7524 85.4616 31.4699C84.8117 31.1874 84.225 30.7787 83.7356 30.2676C83.2463 29.7566 82.8642 29.1534 82.6117 28.4935C82.3593 27.8336 82.2415 27.1302 82.2653 26.4244C82.2157 25.7185 82.3133 25.0099 82.5519 24.3433C82.7905 23.6766 83.165 23.0664 83.6518 22.5508C84.1386 22.0352 84.7273 21.6255 85.3808 21.3474C86.0342 21.0693 86.7384 20.9288 87.449 20.9348C88.1575 20.9453 88.8567 21.0963 89.506 21.379C90.1552 21.6617 90.7413 22.0705 91.2301 22.5814C91.7189 23.0922 92.1006 23.695 92.3528 24.3544C92.605 25.0138 92.7228 25.7167 92.6991 26.422C92.743 27.1263 92.6415 27.8322 92.4011 28.496C92.1606 29.1598 91.7861 29.7675 91.3008 30.2817C90.8155 30.796 90.2296 31.2057 89.5792 31.4859C88.9288 31.766 88.2277 31.9105 87.5191 31.9105L87.5204 31.9129ZM39.0728 22.5489C39.5575 21.9213 40.1855 21.4178 40.9046 21.0802C41.6238 20.7425 42.4134 20.5805 43.2079 20.6075C44.0951 20.6023 44.9641 20.8582 45.7057 21.3432C46.4473 21.8281 47.0285 22.5205 47.3763 23.3334L37.9799 27.2174C37.7081 25.5798 38.0989 23.9016 39.0667 22.5502L39.0728 22.5489Z" fill="#0C0C0C"/>
</g>
</g>
</g>
</g>
</svg>
