<svg width="50" height="156" viewBox="0 0 50 156" fill="none" xmlns="http://www.w3.org/2000/svg">
<g id="Frame">
<path id="Vector" d="M46.2043 62.4954C44.3633 63.6226 42.8384 65.1983 41.7723 67.0753C40.7061 68.9522 40.1336 71.069 40.1083 73.2275C40.1156 75.6568 40.8353 78.0306 42.1784 80.055C43.5215 82.0793 45.4289 83.6652 47.6644 84.6162C46.783 87.4599 45.4786 90.1547 43.795 92.6101C41.386 96.078 38.867 99.5456 35.0344 99.5456C31.2018 99.5456 30.216 97.3189 25.7992 97.3189C21.4919 97.3189 19.9587 99.6187 16.4544 99.6187C12.9501 99.6187 10.5047 96.4064 7.6938 92.4642C3.98086 86.9416 1.94028 80.4649 1.81689 73.8113C1.81689 62.8605 8.93506 57.0568 15.9433 57.0568C19.6667 57.0568 22.7695 59.5022 25.1057 59.5022C27.3324 59.5022 30.8003 56.9105 35.0344 56.9105C37.2114 56.8543 39.3689 57.3343 41.3167 58.3082C43.2646 59.2822 44.943 60.7201 46.2043 62.4954ZM33.0269 52.2748C34.8934 50.0792 35.95 47.3095 36.0201 44.4286C36.0233 44.0488 35.9866 43.6697 35.9106 43.2976C32.7044 43.6108 29.7396 45.1389 27.6243 47.5685C25.7398 49.6767 24.6434 52.3723 24.5215 55.1974C24.5229 55.5409 24.5596 55.8835 24.6311 56.2195C24.8838 56.2673 25.1404 56.2918 25.3977 56.2927C26.8753 56.1751 28.3136 55.7583 29.6251 55.0676C30.9366 54.3769 32.094 53.4267 33.0269 52.2748Z" fill="#0C0C0C"/>
</g>
</svg>
