<svg width="214" height="33" viewBox="0 0 214 33" fill="none" xmlns="http://www.w3.org/2000/svg">
<path id="Vector" d="M176.251 1.22446L176.67 25.1209H176.464L169.526 1.22446H158.154V31.3263H165.677L165.258 6.59765H165.464L172.888 31.3263H183.774V1.22446H176.251ZM32.8921 1.22446L27.206 31.6393H35.4222L39.6169 3.96765H39.79L43.8848 31.6393H52.0345L46.415 1.22446H32.8921ZM78.8739 1.22446L75.1253 24.4217H74.9189L71.137 1.22446H58.7194L58.1268 31.6393H65.7571L65.9636 4.28058H66.0301L71.1303 31.6393H78.8606L83.9608 4.28058H84.1672L84.3736 31.6393H92.0039L91.2782 1.22446H78.8739ZM14.3689 23.0035C14.6818 23.696 14.5753 24.7347 14.4754 25.2207C14.269 26.2594 13.5366 27.2648 11.5258 27.2648C9.58161 27.2648 8.47634 26.1529 8.47634 24.5283V21.5787H0.32666V23.9024C0.32666 30.7338 5.69986 32.7445 11.4259 32.7445C16.9057 32.7445 21.4799 30.8403 22.2123 25.8466C22.6318 23.21 22.3188 21.4788 22.2123 20.8529C20.7874 14.4344 9.17546 12.6367 8.37647 9.0612C8.26994 8.43533 8.26994 7.8494 8.37647 7.42993C8.58287 6.42454 9.27533 5.38585 11.113 5.38585C12.9507 5.38585 13.9561 6.49778 13.9561 8.12239V9.96006H21.5864V7.84274C21.5864 1.2178 15.5873 0.212402 11.3194 0.212402C5.90626 0.212402 1.43859 2.01678 0.639597 6.90393C0.433192 8.22226 0.32666 9.46735 0.746129 10.9987C1.95793 17.2775 12.8508 19.1151 14.3755 22.9969L14.3689 23.0035ZM113.377 23.0035C113.69 23.696 113.583 24.6348 113.483 25.2207C113.277 26.2594 112.545 27.2648 110.534 27.2648C108.59 27.2648 107.484 26.1529 107.484 24.5283V21.5787H99.3346V23.9024C99.3346 30.6272 104.608 32.678 110.327 32.678C115.807 32.678 120.281 30.8403 121.007 25.7401C121.427 23.1034 121.114 21.4721 121.007 20.7464C119.795 14.4344 108.283 12.5301 107.484 9.0612C107.378 8.43533 107.378 7.8494 107.484 7.42993C107.657 6.42454 108.383 5.38585 110.221 5.38585C111.952 5.38585 113.064 6.49778 113.064 8.12239V9.96006H120.588V7.84274C120.588 1.2178 114.695 0.212402 110.427 0.212402C105.014 0.212402 100.646 1.91025 99.8473 6.90393C99.6409 8.22226 99.6409 9.46735 99.9139 10.9987C101.166 17.2775 111.845 19.0086 113.37 22.9969L113.377 23.0035ZM139.004 27.0651C141.155 27.0651 141.741 25.6402 141.954 24.8479C142.061 24.5349 142.061 24.0156 142.061 23.7027V1.23111H149.791V23.1101C149.791 23.7027 149.791 24.8412 149.684 25.1209C149.198 30.8403 144.691 32.678 139.104 32.678C133.518 32.678 129.05 30.8403 128.524 25.1209C128.524 24.8412 128.418 23.696 128.418 23.1101V1.23111H136.148V23.7027C136.148 24.1221 136.148 24.5349 136.255 24.8479C136.255 25.6469 136.88 27.0651 138.991 27.0651H139.004ZM202.504 26.7521C204.761 26.7521 205.454 25.3273 205.66 24.5349C205.767 24.222 205.767 23.7027 205.767 23.423V19.0219H202.611V14.5476H213.397V22.6973C213.397 23.3231 213.397 23.7027 213.29 24.7413C212.771 30.3276 207.984 32.2652 202.611 32.2652C197.197 32.2652 192.45 30.3209 191.931 24.7413C191.824 23.7027 191.824 23.3165 191.824 22.6973V9.86684C191.824 9.38079 191.931 8.34211 191.931 7.85606C192.623 2.13664 197.204 0.298963 202.611 0.298963C207.984 0.298963 212.664 2.13664 213.29 7.85606C213.397 8.75492 213.397 9.86684 213.397 9.86684V10.9055H205.767V9.17439C205.767 9.17439 205.767 8.44864 205.66 8.02917C205.553 7.33671 204.934 5.81198 202.611 5.81198C200.353 5.81198 199.767 7.23684 199.561 8.02917C199.455 8.44864 199.455 8.96799 199.455 9.48733V23.4297C199.455 23.8092 199.455 24.2287 199.561 24.5416C199.561 25.3406 200.36 26.7588 202.511 26.7588L202.504 26.7521Z" fill="#063A88"/>
</svg>
