<svg width="200" height="36" viewBox="0 0 200 36" fill="none" xmlns="http://www.w3.org/2000/svg">
<path id="Vector" d="M67.8715 35.4218C59.2307 34.5266 52.0701 30.4402 49.2991 24.8071C48.1304 22.4299 48.0641 22.0735 48.0641 18.1314C48.0641 14.1876 48.1304 13.8328 49.2991 11.4572C51.5391 6.91002 56.3819 3.50167 63.2014 1.67482C67.5391 0.514395 75.1409 0.514398 79.5634 1.68312C85.7931 3.32429 90.5928 6.85863 92.8603 11.4639C94.029 13.8361 94.092 14.1859 94.087 18.1264C94.0814 21.8099 93.971 22.5211 93.1023 24.3595C90.3796 30.1285 84.4982 33.8784 76.2123 35.1283C72.7472 35.6588 70.7689 35.7201 67.8715 35.4218ZM75.8509 30.1551C79.8758 28.8952 83.1614 25.5001 84.1229 21.6093C84.3683 20.6147 84.4893 18.5773 84.3931 17.082C83.9853 10.8091 80.0157 6.62986 73.3669 5.47108C67.3393 4.4267 60.982 7.51178 58.7226 12.5895C57.6186 15.0711 57.3948 19.5106 58.2386 22.1929C60.394 29.046 68.1718 32.5621 75.8509 30.1551ZM15.152 34.5431C13.2363 34.1287 10.5305 33.3661 9.13934 32.8655C7.74848 32.3682 6.47168 32.0366 6.30292 32.1361C6.13383 32.3019 5.99623 32.7329 5.99623 33.2468C5.99623 34.1254 5.89677 34.1585 3.54375 34.1585H1.09143V28.1227V22.0851H3.3551C5.48034 22.0851 5.61893 22.0851 5.61893 22.9637C5.61893 25.016 9.19736 28.3547 12.3431 29.2367C18.3954 30.9342 23.924 31.1365 28.2072 29.8169C31.614 28.7725 32.9411 26.5677 31.4521 24.4424C30.6464 23.2986 29.1712 22.9505 20.212 21.8862C8.33483 20.4605 5.52062 19.7112 2.84981 17.2279C-0.473655 14.1378 -0.649211 9.00708 2.45858 5.79435C4.28344 3.90783 5.80625 3.11542 10.0246 1.85718C16.1812 0.0203861 24.9895 0.597287 31.1789 3.2497C33.4155 4.21119 33.9155 4.16146 33.9155 3.00103C33.9155 2.07269 33.9818 2.03953 36.0848 2.15558L38.2543 2.32135L38.3538 7.38579C38.4698 13.0321 38.4533 13.0586 35.9658 13.0686C34.5633 13.0736 34.3992 12.9028 33.9662 11.7755C33.2351 9.75472 30.5622 7.65601 27.402 6.61991C25.0034 5.84077 23.9671 5.72472 19.0063 5.7413C12.1987 5.75622 10.0179 6.37125 8.92167 8.5512C8.36633 9.66189 8.34477 9.96029 8.77248 10.6201C9.53339 11.7805 11.1653 12.1618 19.0048 13.0669C22.9476 13.5145 27.3619 14.1113 28.8144 14.3931C36.6035 15.8851 40.293 19.136 40.3134 24.5088C40.33 30.8182 33.9967 34.7122 22.9663 35.1631C19.5275 35.3289 17.9051 35.1631 15.1444 34.5829L15.152 34.5431ZM99.5638 31.7233V29.6412H102.164C104.188 29.6412 104.816 29.4754 104.994 29.0444C105.127 28.7128 105.223 23.8059 105.223 18.1297C105.223 6.08445 105.394 6.62654 101.612 6.62654H99.1861V4.55103V2.47718H106.755H114.324L119.677 7.26312C122.622 9.89729 127.378 14.1843 130.246 16.7902C133.115 19.3979 135.577 21.5729 135.717 21.6243C136.127 21.79 135.634 7.45707 135.217 7.04098C135.009 6.82547 133.65 6.60996 132.198 6.54365L129.557 6.37787V4.49136V2.60483H138.612H147.667L147.783 4.58584L147.899 6.56686H145.075C142.546 6.56686 142.225 6.56686 142.002 7.34601C141.87 7.77702 141.87 13.8991 142.035 20.9495L142.312 33.7673L139.183 33.6015H136.054L130.17 28.421C126.933 25.573 121.399 20.6644 117.872 17.513L111.457 11.7838L111.358 19.8223C111.292 24.2452 111.343 28.237 111.457 28.6962C111.643 29.4588 111.928 29.5417 114.583 29.6412L117.503 29.8069V31.6935V33.5783L108.543 33.7441L99.582 33.9099V31.8294L99.5638 31.7233ZM164.989 33.265C164.873 32.9666 164.84 32.0714 164.906 31.279L165.022 29.8202L167.474 29.6544C170.642 29.4886 170.87 29.2068 170.87 25.0376V21.7784L164.457 14.5589C160.93 10.5886 157.715 7.16365 157.313 6.9498C156.912 6.73429 155.468 6.55195 154.105 6.55195H151.628V4.4698V2.38932L162.287 2.55509L172.945 2.72087L173.061 4.70188L173.177 6.68291H171.46C170.487 6.68291 169.742 6.86526 169.742 7.08077C169.742 7.29628 171.467 9.52098 173.575 12.0093C177.228 16.3211 177.437 16.5001 178.043 15.8486C181.131 12.5215 185.223 7.37585 185.03 7.06419C184.897 6.84868 184.119 6.68291 183.302 6.68291H181.815V4.6074V2.53188H190.493H199.171V4.59081V6.64975L196.254 6.81552L193.338 6.9813L186.81 14.3285L180.282 21.6756L180.382 25.6476L180.481 29.6196L183.424 29.7854L186.368 29.9512L186.252 31.9156L186.136 33.88L175.656 34.0458C166.918 34.2116 165.143 34.0574 164.973 33.6148L164.989 33.265Z" fill="#0C0C0C"/>
</svg>
